<svg id="visual" viewBox="0 0 540 960" width="540" height="960" xmlns="http://www.w3.org/2000/svg" xmlns:xlink="http://www.w3.org/1999/xlink" version="1.1"><rect x="0" y="0" width="540" height="960" fill="#001122"></rect><path d="M0 831L10 826.8C20 822.7 40 814.3 60 812.3C80 810.3 100 814.7 120 816.7C140 818.7 160 818.3 180 818.3C200 818.3 220 818.7 240 821.8C260 825 280 831 300 831.2C320 831.3 340 825.7 360 822.7C380 819.7 400 819.3 420 819.2C440 819 460 819 480 817.7C500 816.3 520 813.7 530 812.3L540 811L540 961L530 961C520 961 500 961 480 961C460 961 440 961 420 961C400 961 380 961 360 961C340 961 320 961 300 961C280 961 260 961 240 961C220 961 200 961 180 961C160 961 140 961 120 961C100 961 80 961 60 961C40 961 20 961 10 961L0 961Z" fill="#a5f3fc"></path><path d="M0 845L10 846.8C20 848.7 40 852.3 60 850.7C80 849 100 842 120 842C140 842 160 849 180 852.3C200 855.7 220 855.3 240 855C260 854.7 280 854.3 300 850.3C320 846.3 340 838.7 360 836.5C380 834.3 400 837.7 420 842C440 846.3 460 851.7 480 855C500 858.3 520 859.7 530 860.3L540 861L540 961L530 961C520 961 500 961 480 961C460 961 440 961 420 961C400 961 380 961 360 961C340 961 320 961 300 961C280 961 260 961 240 961C220 961 200 961 180 961C160 961 140 961 120 961C100 961 80 961 60 961C40 961 20 961 10 961L0 961Z" fill="#80ccd9"></path><path d="M0 874L10 871.3C20 868.7 40 863.3 60 861.2C80 859 100 860 120 864.2C140 868.3 160 875.7 180 876C200 876.3 220 869.7 240 866C260 862.3 280 861.7 300 863.3C320 865 340 869 360 871.2C380 873.3 400 873.7 420 875.7C440 877.7 460 881.3 480 880.5C500 879.7 520 874.3 530 871.7L540 869L540 961L530 961C520 961 500 961 480 961C460 961 440 961 420 961C400 961 380 961 360 961C340 961 320 961 300 961C280 961 260 961 240 961C220 961 200 961 180 961C160 961 140 961 120 961C100 961 80 961 60 961C40 961 20 961 10 961L0 961Z" fill="#5da6b7"></path><path d="M0 908L10 906.3C20 904.7 40 901.3 60 900.8C80 900.3 100 902.7 120 905.7C140 908.7 160 912.3 180 909.8C200 907.3 220 898.7 240 897.7C260 896.7 280 903.3 300 905.5C320 907.7 340 905.3 360 904.2C380 903 400 903 420 901.7C440 900.3 460 897.7 480 899.2C500 900.7 520 906.3 530 909.2L540 912L540 961L530 961C520 961 500 961 480 961C460 961 440 961 420 961C400 961 380 961 360 961C340 961 320 961 300 961C280 961 260 961 240 961C220 961 200 961 180 961C160 961 140 961 120 961C100 961 80 961 60 961C40 961 20 961 10 961L0 961Z" fill="#3b8196"></path><path d="M0 922L10 922.7C20 923.3 40 924.7 60 923.5C80 922.3 100 918.7 120 918.7C140 918.7 160 922.3 180 923C200 923.7 220 921.3 240 923.5C260 925.7 280 932.3 300 932.2C320 932 340 925 360 921C380 917 400 916 420 915.7C440 915.3 460 915.7 480 916.8C500 918 520 920 530 921L540 922L540 961L530 961C520 961 500 961 480 961C460 961 440 961 420 961C400 961 380 961 360 961C340 961 320 961 300 961C280 961 260 961 240 961C220 961 200 961 180 961C160 961 140 961 120 961C100 961 80 961 60 961C40 961 20 961 10 961L0 961Z" fill="#155e75"></path></svg>