<svg id="visual" viewBox="0 0 960 540" width="960" height="540" xmlns="http://www.w3.org/2000/svg" xmlns:xlink="http://www.w3.org/1999/xlink" version="1.1"><rect x="0" y="0" width="960" height="540" fill="#001122"></rect><path d="M0 439L17.8 440.7C35.7 442.3 71.3 445.7 106.8 440.8C142.3 436 177.7 423 213.2 420.3C248.7 417.7 284.3 425.3 320 427.3C355.7 429.3 391.3 425.7 426.8 425.5C462.3 425.3 497.7 428.7 533.2 431C568.7 433.3 604.3 434.7 640 437.2C675.7 439.7 711.3 443.3 746.8 445.3C782.3 447.3 817.7 447.7 853.2 447.5C888.7 447.3 924.3 446.7 942.2 446.3L960 446L960 541L942.2 541C924.3 541 888.7 541 853.2 541C817.7 541 782.3 541 746.8 541C711.3 541 675.7 541 640 541C604.3 541 568.7 541 533.2 541C497.7 541 462.3 541 426.8 541C391.3 541 355.7 541 320 541C284.3 541 248.7 541 213.2 541C177.7 541 142.3 541 106.8 541C71.3 541 35.7 541 17.8 541L0 541Z" fill="#a5f3fc"></path><path d="M0 430L17.8 436C35.7 442 71.3 454 106.8 454.3C142.3 454.7 177.7 443.3 213.2 441C248.7 438.7 284.3 445.3 320 445C355.7 444.7 391.3 437.3 426.8 438.5C462.3 439.7 497.7 449.3 533.2 455.5C568.7 461.7 604.3 464.3 640 465.8C675.7 467.3 711.3 467.7 746.8 465.5C782.3 463.3 817.7 458.7 853.2 454.3C888.7 450 924.3 446 942.2 444L960 442L960 541L942.2 541C924.3 541 888.7 541 853.2 541C817.7 541 782.3 541 746.8 541C711.3 541 675.7 541 640 541C604.3 541 568.7 541 533.2 541C497.7 541 462.3 541 426.8 541C391.3 541 355.7 541 320 541C284.3 541 248.7 541 213.2 541C177.7 541 142.3 541 106.8 541C71.3 541 35.7 541 17.8 541L0 541Z" fill="#80ccd9"></path><path d="M0 464L17.8 466.7C35.7 469.3 71.3 474.7 106.8 475.3C142.3 476 177.7 472 213.2 471.2C248.7 470.3 284.3 472.7 320 474.2C355.7 475.7 391.3 476.3 426.8 472.7C462.3 469 497.7 461 533.2 460.2C568.7 459.3 604.3 465.7 640 468.5C675.7 471.3 711.3 470.7 746.8 469.3C782.3 468 817.7 466 853.2 465C888.7 464 924.3 464 942.2 464L960 464L960 541L942.2 541C924.3 541 888.7 541 853.2 541C817.7 541 782.3 541 746.8 541C711.3 541 675.7 541 640 541C604.3 541 568.7 541 533.2 541C497.7 541 462.3 541 426.8 541C391.3 541 355.7 541 320 541C284.3 541 248.7 541 213.2 541C177.7 541 142.3 541 106.8 541C71.3 541 35.7 541 17.8 541L0 541Z" fill="#5da6b7"></path><path d="M0 493L17.8 492.5C35.7 492 71.3 491 106.8 489.2C142.3 487.3 177.7 484.7 213.2 486.7C248.7 488.7 284.3 495.3 320 495.2C355.7 495 391.3 488 426.8 487.8C462.3 487.7 497.7 494.3 533.2 496.5C568.7 498.7 604.3 496.3 640 492.5C675.7 488.7 711.3 483.3 746.8 481.7C782.3 480 817.7 482 853.2 482C888.7 482 924.3 480 942.2 479L960 478L960 541L942.2 541C924.3 541 888.7 541 853.2 541C817.7 541 782.3 541 746.8 541C711.3 541 675.7 541 640 541C604.3 541 568.7 541 533.2 541C497.7 541 462.3 541 426.8 541C391.3 541 355.7 541 320 541C284.3 541 248.7 541 213.2 541C177.7 541 142.3 541 106.8 541C71.3 541 35.7 541 17.8 541L0 541Z" fill="#3b8196"></path><path d="M0 499L17.8 501.8C35.7 504.7 71.3 510.3 106.8 513.2C142.3 516 177.7 516 213.2 517C248.7 518 284.3 520 320 519.5C355.7 519 391.3 516 426.8 514C462.3 512 497.7 511 533.2 512.5C568.7 514 604.3 518 640 516.8C675.7 515.7 711.3 509.3 746.8 506C782.3 502.7 817.7 502.3 853.2 503.2C888.7 504 924.3 506 942.2 507L960 508L960 541L942.2 541C924.3 541 888.7 541 853.2 541C817.7 541 782.3 541 746.8 541C711.3 541 675.7 541 640 541C604.3 541 568.7 541 533.2 541C497.7 541 462.3 541 426.8 541C391.3 541 355.7 541 320 541C284.3 541 248.7 541 213.2 541C177.7 541 142.3 541 106.8 541C71.3 541 35.7 541 17.8 541L0 541Z" fill="#155e75"></path></svg>