<svg id="visual" viewBox="0 0 960 540" width="960" height="540" xmlns="http://www.w3.org/2000/svg" xmlns:xlink="http://www.w3.org/1999/xlink" version="1.1"><rect x="0" y="0" width="960" height="540" fill="#FFFFFF"></rect><defs><linearGradient id="grad1_0" x1="43.8%" y1="0%" x2="100%" y2="100%"><stop offset="14.444444444444446%" stop-color="#0891b2" stop-opacity="1"></stop><stop offset="85.55555555555554%" stop-color="#0891b2" stop-opacity="1"></stop></linearGradient></defs><defs><linearGradient id="grad1_1" x1="43.8%" y1="0%" x2="100%" y2="100%"><stop offset="14.444444444444446%" stop-color="#0891b2" stop-opacity="1"></stop><stop offset="85.55555555555554%" stop-color="#66acc5" stop-opacity="1"></stop></linearGradient></defs><defs><linearGradient id="grad1_2" x1="43.8%" y1="0%" x2="100%" y2="100%"><stop offset="14.444444444444446%" stop-color="#9cc7d8" stop-opacity="1"></stop><stop offset="85.55555555555554%" stop-color="#66acc5" stop-opacity="1"></stop></linearGradient></defs><defs><linearGradient id="grad1_3" x1="43.8%" y1="0%" x2="100%" y2="100%"><stop offset="14.444444444444446%" stop-color="#9cc7d8" stop-opacity="1"></stop><stop offset="85.55555555555554%" stop-color="#cee3eb" stop-opacity="1"></stop></linearGradient></defs><defs><linearGradient id="grad1_4" x1="43.8%" y1="0%" x2="100%" y2="100%"><stop offset="14.444444444444446%" stop-color="#ffffff" stop-opacity="1"></stop><stop offset="85.55555555555554%" stop-color="#cee3eb" stop-opacity="1"></stop></linearGradient></defs><defs><linearGradient id="grad2_0" x1="0%" y1="0%" x2="56.3%" y2="100%"><stop offset="14.444444444444446%" stop-color="#0891b2" stop-opacity="1"></stop><stop offset="85.55555555555554%" stop-color="#0891b2" stop-opacity="1"></stop></linearGradient></defs><defs><linearGradient id="grad2_1" x1="0%" y1="0%" x2="56.3%" y2="100%"><stop offset="14.444444444444446%" stop-color="#66acc5" stop-opacity="1"></stop><stop offset="85.55555555555554%" stop-color="#0891b2" stop-opacity="1"></stop></linearGradient></defs><defs><linearGradient id="grad2_2" x1="0%" y1="0%" x2="56.3%" y2="100%"><stop offset="14.444444444444446%" stop-color="#66acc5" stop-opacity="1"></stop><stop offset="85.55555555555554%" stop-color="#9cc7d8" stop-opacity="1"></stop></linearGradient></defs><defs><linearGradient id="grad2_3" x1="0%" y1="0%" x2="56.3%" y2="100%"><stop offset="14.444444444444446%" stop-color="#cee3eb" stop-opacity="1"></stop><stop offset="85.55555555555554%" stop-color="#9cc7d8" stop-opacity="1"></stop></linearGradient></defs><defs><linearGradient id="grad2_4" x1="0%" y1="0%" x2="56.3%" y2="100%"><stop offset="14.444444444444446%" stop-color="#cee3eb" stop-opacity="1"></stop><stop offset="85.55555555555554%" stop-color="#ffffff" stop-opacity="1"></stop></linearGradient></defs><g transform="translate(960, 0)"><path d="M0 432C-40.7 390.2 -81.3 348.4 -138.5 334.4C-195.7 320.5 -269.4 334.3 -305.5 305.5C-341.5 276.6 -340 205 -354.8 147C-369.6 88.9 -400.8 44.5 -432 0L0 0Z" fill="#e7f1f5"></path><path d="M0 345.6C-32.5 312.2 -65.1 278.7 -110.8 267.6C-156.6 256.4 -215.5 267.5 -244.4 244.4C-273.2 221.3 -272 164 -283.8 117.6C-295.7 71.1 -320.6 35.6 -345.6 0L0 0Z" fill="#b6d5e2"></path><path d="M0 259.2C-24.4 234.1 -48.8 209 -83.1 200.7C-117.4 192.3 -161.6 200.6 -183.3 183.3C-204.9 166 -204 123 -212.9 88.2C-221.8 53.3 -240.5 26.7 -259.2 0L0 0Z" fill="#82b9cf"></path><path d="M0 172.8C-16.3 156.1 -32.5 139.4 -55.4 133.8C-78.3 128.2 -107.8 133.7 -122.2 122.2C-136.6 110.6 -136 82 -141.9 58.8C-147.8 35.6 -160.3 17.8 -172.8 0L0 0Z" fill="#459ebb"></path><path d="M0 86.4C-8.1 78 -16.3 69.7 -27.7 66.9C-39.1 64.1 -53.9 66.9 -61.1 61.1C-68.3 55.3 -68 41 -71 29.4C-73.9 17.8 -80.2 8.9 -86.4 0L0 0Z" fill="#0891b2"></path></g><g transform="translate(0, 540)"><path d="M0 -432C45.6 -403.3 91.2 -374.6 148.9 -359.4C206.6 -344.2 276.4 -342.4 305.5 -305.5C334.6 -268.5 322.9 -196.5 337.2 -139.7C351.5 -82.9 391.8 -41.5 432 0L0 0Z" fill="#e7f1f5"></path><path d="M0 -345.6C36.5 -322.6 72.9 -299.7 119.1 -287.5C165.3 -275.3 221.1 -273.9 244.4 -244.4C267.6 -214.8 258.3 -157.2 269.8 -111.7C281.2 -66.3 313.4 -33.2 345.6 0L0 0Z" fill="#b6d5e2"></path><path d="M0 -259.2C27.3 -242 54.7 -224.8 89.3 -215.6C123.9 -206.5 165.8 -205.4 183.3 -183.3C200.7 -161.1 193.7 -117.9 202.3 -83.8C210.9 -49.7 235.1 -24.9 259.2 0L0 0Z" fill="#82b9cf"></path><path d="M0 -172.8C18.2 -161.3 36.5 -149.8 59.5 -143.8C82.6 -137.7 110.6 -137 122.2 -122.2C133.8 -107.4 129.2 -78.6 134.9 -55.9C140.6 -33.2 156.7 -16.6 172.8 0L0 0Z" fill="#459ebb"></path><path d="M0 -86.4C9.1 -80.7 18.2 -74.9 29.8 -71.9C41.3 -68.8 55.3 -68.5 61.1 -61.1C66.9 -53.7 64.6 -39.3 67.4 -27.9C70.3 -16.6 78.4 -8.3 86.4 0L0 0Z" fill="#0891b2"></path></g></svg>