<svg id="visual" viewBox="0 0 1920 1080" width="1920" height="1080" xmlns="http://www.w3.org/2000/svg" xmlns:xlink="http://www.w3.org/1999/xlink" version="1.1"><rect x="0" y="0" width="1920" height="1080" fill="#f8fafc"></rect><defs><linearGradient id="grad1_0" x1="43.8%" y1="0%" x2="100%" y2="100%"><stop offset="14.444444444444446%" stop-color="#f8fafc" stop-opacity="1"></stop><stop offset="85.55555555555554%" stop-color="#f8fafc" stop-opacity="1"></stop></linearGradient></defs><defs><linearGradient id="grad2_0" x1="0%" y1="0%" x2="56.3%" y2="100%"><stop offset="14.444444444444446%" stop-color="#f8fafc" stop-opacity="1"></stop><stop offset="85.55555555555554%" stop-color="#f8fafc" stop-opacity="1"></stop></linearGradient></defs><g transform="translate(1920, 0)"><path d="M0 810C-76.7 734 -153.4 657.9 -261.8 631.9C-370.1 605.9 -510 629.9 -572.8 572.8C-635.5 515.6 -621 377.2 -647.6 268.3C-674.3 159.3 -742.2 79.6 -810 0L0 0Z" fill="#0891b2"></path></g><g transform="translate(0, 1080)"><path d="M0 -810C87.2 -761.7 174.5 -713.4 283.6 -684.6C392.7 -655.8 523.6 -646.4 572.8 -572.8C621.9 -499.1 589.4 -361.1 615.3 -254.9C641.2 -148.7 725.6 -74.3 810 0L0 0Z" fill="#0891b2"></path></g></svg>